<svg width="133" height="111" viewBox="0 0 133 111" fill="none" xmlns="http://www.w3.org/2000/svg">
<path d="M53.0295 0.151516C85.5957 -0.132592 107.751 12.3047 116.599 16.8146C127.151 22.1906 129.746 26.0247 129.003 29.1471C127.651 34.8458 101.365 33.1991 101.307 35.2293C101.247 37.2594 125.257 41.179 124.459 49.6691C123.661 58.1593 97.0336 59.1054 97.0281 62.3244C97.0225 66.0261 116.585 70.4201 116.163 76.265C115.873 80.2839 97.8591 89.7477 57.0271 92.8316C4.17748 96.8229 16.035 53.2936 18.4673 34.3411C20.2121 20.7563 14.6822 0.485275 53.0295 0.151516Z" fill="#3C84F1"/>
<path d="M50.4588 0.152402C74.265 -0.581315 94.3828 7.1172 106.235 12.9676C122.449 20.9696 125.845 24.8726 125.591 28.0999C125.121 34.0551 95.2138 30.1079 94.8328 33.6662C94.4518 37.2244 120.11 40.631 119.307 49.2012C118.504 57.7741 91.9892 58.7147 91.2023 61.8702C90.1671 66.027 110.166 71.1603 109.879 75.7226C109.595 80.2849 90.2692 89.2495 57.8521 92.5098C3.60834 97.9686 12.8735 53.882 15.3306 34.7475C17.092 21.033 11.7637 1.344 50.4588 0.152402Z" fill="url(#paint0_linear)"/>
<path d="M62.1011 53.0159C63.5754 65.4477 83.5358 64.8023 83.7098 74.7599C83.9196 86.7834 65.3478 90.9982 52.4412 92.5235C27.0806 95.5191 4.08611 77.4244 1.08514 52.1084C-1.91583 26.7925 16.2087 3.83761 41.5692 0.84206C59.5999 -1.28737 86.1199 4.31756 86.1199 19.4746C86.1254 26.2711 61.2343 45.6981 62.1011 53.0159Z" fill="url(#paint1_linear)"/>
<mask id="mask0" mask-type="alpha" maskUnits="userSpaceOnUse" x="0" y="0" width="87" height="93">
<path d="M62.1011 53.0159C63.5754 65.4477 83.5358 64.8023 83.7098 74.7599C83.9196 86.7834 65.3478 90.9982 52.4412 92.5235C27.0806 95.5191 4.08611 77.4244 1.08514 52.1084C-1.91583 26.7925 16.2087 3.83761 41.5692 0.84206C59.5999 -1.28737 86.1199 4.31756 86.1199 19.4746C86.1254 26.2711 61.2343 45.6981 62.1011 53.0159Z" fill="url(#paint2_linear)"/>
</mask>
<g mask="url(#mask0)">
<path d="M28.4475 61.8828C45.6801 61.8828 59.6498 51.7574 59.6498 39.2672C59.6498 26.7769 45.6801 16.6516 28.4475 16.6516C11.2149 16.6516 -2.75488 26.7769 -2.75488 39.2672C-2.75488 51.7574 11.2149 61.8828 28.4475 61.8828Z" fill="#3A2416"/>
</g>
<path d="M42.4606 36.0868C42.3695 41.7442 39.5258 46.2844 36.1108 46.2292C32.6957 46.174 30.0039 41.5428 30.095 35.8855C30.1861 30.2281 33.0297 25.6879 36.4448 25.7431C39.8599 25.801 42.5517 30.4295 42.4606 36.0868Z" fill="url(#paint3_linear)"/>
<path d="M46.2334 36.0701C46.3257 30.4128 43.6321 25.7816 40.217 25.7259C36.8019 25.6703 33.9587 30.2114 33.8664 35.8686C33.774 41.5259 36.4677 46.1572 39.8828 46.2128C43.2978 46.2684 46.1411 41.7273 46.2334 36.0701Z" fill="#FBB03B"/>
<path d="M13.0602 35.6455C12.9167 40.7539 10.9151 44.8446 8.59329 44.7784C6.26871 44.7122 4.50181 40.5167 4.64537 35.4083C4.78893 30.2999 6.7905 26.2093 9.11231 26.2755C11.4369 26.3417 13.2038 30.5371 13.0602 35.6455Z" fill="url(#paint4_linear)"/>
<path d="M16.6544 35.171C16.7982 30.0606 15.0305 25.8648 12.7063 25.7995C10.382 25.7343 8.38119 29.8242 8.2374 34.9346C8.09361 40.045 9.86126 44.2408 12.1856 44.3061C14.5098 44.3713 16.5106 40.2814 16.6544 35.171Z" fill="#FBB03B"/>
<!--<path d="M57.1864 110.437C75.7394 110.437 90.7796 108.369 90.7796 105.819C90.7796 103.269 75.7394 101.202 57.1864 101.202C38.6334 101.202 23.5933 103.269 23.5933 105.819C23.5933 108.369 38.6334 110.437 57.1864 110.437Z" fill="#471F77"/>-->
<path opacity="0.5" d="M57.2262 6.70077C57.4471 8.5654 50.7549 9.88113 41.8404 10.9348C32.9258 11.9885 24.4474 13.4201 24.2266 11.5554C24.0057 9.6908 32.1252 5.23609 41.0397 4.18241C49.9543 3.12873 57.0053 4.83613 57.2262 6.70077Z" fill="url(#paint5_linear)"/>
<path d="M128.435 65.1741C128.416 67.6594 125.573 69.6509 122.088 69.6233C118.604 69.5957 110.385 67.5132 110.405 65.0279C110.424 62.5426 118.676 60.5953 122.16 60.6228C125.647 60.6504 128.455 62.6888 128.435 65.1741Z" fill="#3C84F1"/>
<path d="M132.215 36.9857C132.259 38.227 130.882 39.2834 129.14 39.3441C127.398 39.4048 123.248 38.5414 123.204 37.2974C123.16 36.0562 127.24 34.9059 128.982 34.8453C130.724 34.7846 132.171 35.7417 132.215 36.9857Z" fill="#3C84F1"/>
<g opacity="0.27">
<g style="mix-blend-mode:soft-light" opacity="0.7">
<path d="M53.0295 0.150052C85.5957 -0.134057 107.751 12.3033 116.599 16.8131C127.151 22.1891 129.746 26.0232 129.003 29.1457C127.651 34.8444 101.365 33.1977 101.307 35.2278C101.247 37.2579 125.257 41.1775 124.459 49.6677C123.661 58.1578 97.0336 59.1039 97.0281 62.3229C97.0225 66.0246 116.585 70.4186 116.163 76.2635C115.873 80.2824 97.8591 89.7463 57.0271 92.8301C4.17748 96.8214 16.035 53.2921 18.4673 34.3396C20.2121 20.7548 14.6822 0.48381 53.0295 0.150052Z" fill="#FF63E6"/>
<path d="M50.4588 0.150937C74.265 -0.58278 94.3828 7.11574 106.235 12.9662C122.449 20.9681 125.845 24.8712 125.591 28.0984C125.121 34.0537 95.2138 30.1065 94.8328 33.6647C94.4518 37.223 120.11 40.6295 119.307 49.1997C118.504 57.7726 91.9892 58.7132 91.2023 61.8687C90.1671 66.0255 110.166 71.1588 109.879 75.7211C109.595 80.2834 90.2692 89.248 57.8521 92.5083C3.60834 97.9671 12.8735 53.8806 15.3306 34.746C17.092 21.0315 11.7637 1.34254 50.4588 0.150937Z" fill="#FF63E6"/>
<path d="M62.1011 53.0145C63.5754 65.4463 83.5358 64.8008 83.7098 74.7584C83.9196 86.782 65.3478 90.9967 52.4412 92.5221C27.0806 95.5176 4.08611 77.4229 1.08514 52.107C-1.91583 26.791 16.2087 3.83614 41.5692 0.840595C59.5999 -1.28884 86.1199 4.31609 86.1199 19.4731C86.1254 26.2697 61.2343 45.6966 62.1011 53.0145Z" fill="#FF63E6"/>
<mask id="mask1" mask-type="alpha" maskUnits="userSpaceOnUse" x="0" y="0" width="87" height="93">
<path d="M62.1011 53.0145C63.5754 65.4463 83.5358 64.8008 83.7098 74.7584C83.9196 86.782 65.3478 90.9967 52.4412 92.5221C27.0806 95.5176 4.08611 77.4229 1.08514 52.107C-1.91583 26.791 16.2087 3.83614 41.5692 0.840595C59.5999 -1.28884 86.1199 4.31609 86.1199 19.4731C86.1254 26.2697 61.2343 45.6966 62.1011 53.0145Z" fill="url(#paint6_linear)"/>
</mask>
<g mask="url(#mask1)">
<path d="M28.4475 61.8813C45.6801 61.8813 59.6498 51.756 59.6498 39.2657C59.6498 26.7755 45.6801 16.6501 28.4475 16.6501C11.2149 16.6501 -2.75488 26.7755 -2.75488 39.2657C-2.75488 51.756 11.2149 61.8813 28.4475 61.8813Z" fill="#FF63E6"/>
</g>
<path d="M42.4606 36.0863C42.3695 41.7437 39.5258 46.2839 36.1108 46.2287C32.6957 46.1736 30.0039 41.5423 30.095 35.885C30.1861 30.2276 33.0297 25.6874 36.4448 25.7426C39.8599 25.8005 42.5517 30.429 42.4606 36.0863Z" fill="#FF63E6"/>
<path d="M46.2334 36.0701C46.3257 30.4128 43.6321 25.7816 40.217 25.7259C36.8019 25.6703 33.9587 30.2114 33.8664 35.8686C33.774 41.5259 36.4677 46.1572 39.8828 46.2128C43.2978 46.2684 46.1411 41.7273 46.2334 36.0701Z" fill="#FF63E6"/>
<path d="M13.0602 35.6445C12.9167 40.753 10.9151 44.8436 8.59329 44.7774C6.26871 44.7112 4.50181 40.5158 4.64537 35.4073C4.78893 30.2989 6.7905 26.2083 9.11231 26.2745C11.4369 26.3407 13.2038 30.5361 13.0602 35.6445Z" fill="#FF63E6"/>
<path d="M16.6549 35.1705C16.7987 30.0601 15.031 25.8643 12.7067 25.7991C10.3825 25.7338 8.38168 29.8237 8.23789 34.9341C8.0941 40.0446 9.86175 44.2403 12.186 44.3056C14.5103 44.3709 16.5111 40.281 16.6549 35.1705Z" fill="#FF63E6"/>
<!--<path d="M57.1864 110.435C75.7394 110.435 90.7796 108.368 90.7796 105.818C90.7796 103.267 75.7394 101.2 57.1864 101.2C38.6334 101.2 23.5933 103.267 23.5933 105.818C23.5933 108.368 38.6334 110.435 57.1864 110.435Z" fill="#FF63E6"/>-->
<path opacity="0.5" d="M57.2262 6.69918C57.4471 8.56381 50.7549 9.87954 41.8404 10.9332C32.9258 11.9869 24.4474 13.4185 24.2266 11.5538C24.0057 9.68921 32.1252 5.23451 41.0397 4.18082C49.9543 3.12714 57.0053 4.83455 57.2262 6.69918Z" fill="#FF63E6"/>
<path d="M128.435 65.1725C128.416 67.6578 125.573 69.6493 122.088 69.6217C118.604 69.5941 110.385 67.5116 110.405 65.0263C110.424 62.5411 118.676 60.5937 122.16 60.6213C125.647 60.6488 128.455 62.6873 128.435 65.1725Z" fill="#FF63E6"/>
<path d="M132.215 36.9843C132.259 38.2255 130.882 39.282 129.14 39.3426C127.398 39.4033 123.248 38.54 123.204 37.296C123.16 36.0547 127.24 34.9045 128.982 34.8438C130.724 34.7831 132.171 35.7403 132.215 36.9843Z" fill="#FF63E6"/>
</g>
<g style="mix-blend-mode:overlay" opacity="0.8">
<path d="M53.0295 0.150052C85.5957 -0.134057 107.751 12.3033 116.599 16.8131C127.151 22.1891 129.746 26.0232 129.003 29.1457C127.651 34.8444 101.365 33.1977 101.307 35.2278C101.247 37.2579 125.257 41.1775 124.459 49.6677C123.661 58.1578 97.0336 59.1039 97.0281 62.3229C97.0225 66.0246 116.585 70.4186 116.163 76.2635C115.873 80.2824 97.8591 89.7463 57.0271 92.8301C4.17748 96.8214 16.035 53.2921 18.4673 34.3396C20.2121 20.7548 14.6822 0.48381 53.0295 0.150052Z" fill="#CDE4FF"/>
<path d="M50.4588 0.150937C74.265 -0.58278 94.3828 7.11574 106.235 12.9662C122.449 20.9681 125.845 24.8712 125.591 28.0984C125.121 34.0537 95.2138 30.1065 94.8328 33.6647C94.4518 37.223 120.11 40.6295 119.307 49.1997C118.504 57.7726 91.9892 58.7132 91.2023 61.8687C90.1671 66.0255 110.166 71.1588 109.879 75.7211C109.595 80.2834 90.2692 89.248 57.8521 92.5083C3.60834 97.9671 12.8735 53.8806 15.3306 34.746C17.092 21.0315 11.7637 1.34254 50.4588 0.150937Z" fill="#CDE4FF"/>
<path d="M62.1011 53.0145C63.5754 65.4463 83.5358 64.8008 83.7098 74.7584C83.9196 86.782 65.3478 90.9967 52.4412 92.5221C27.0806 95.5176 4.08611 77.4229 1.08514 52.107C-1.91583 26.791 16.2087 3.83614 41.5692 0.840595C59.5999 -1.28884 86.1199 4.31609 86.1199 19.4731C86.1254 26.2697 61.2343 45.6966 62.1011 53.0145Z" fill="#CDE4FF"/>
<mask id="mask2" mask-type="alpha" maskUnits="userSpaceOnUse" x="0" y="0" width="87" height="93">
<path d="M62.1011 53.0145C63.5754 65.4463 83.5358 64.8008 83.7098 74.7584C83.9196 86.782 65.3478 90.9967 52.4412 92.5221C27.0806 95.5176 4.08611 77.4229 1.08514 52.107C-1.91583 26.791 16.2087 3.83614 41.5692 0.840595C59.5999 -1.28884 86.1199 4.31609 86.1199 19.4731C86.1254 26.2697 61.2343 45.6966 62.1011 53.0145Z" fill="url(#paint7_linear)"/>
</mask>
<g mask="url(#mask2)">
<path d="M28.4475 61.8813C45.6801 61.8813 59.6498 51.756 59.6498 39.2657C59.6498 26.7755 45.6801 16.6501 28.4475 16.6501C11.2149 16.6501 -2.75488 26.7755 -2.75488 39.2657C-2.75488 51.756 11.2149 61.8813 28.4475 61.8813Z" fill="#CDE4FF"/>
</g>
<path d="M42.4606 36.0863C42.3695 41.7437 39.5258 46.2839 36.1108 46.2287C32.6957 46.1736 30.0039 41.5423 30.095 35.885C30.1861 30.2276 33.0297 25.6874 36.4448 25.7426C39.8599 25.8005 42.5517 30.429 42.4606 36.0863Z" fill="#CDE4FF"/>
<path d="M46.2334 36.0701C46.3257 30.4128 43.6321 25.7816 40.217 25.7259C36.8019 25.6703 33.9587 30.2114 33.8664 35.8686C33.774 41.5259 36.4677 46.1572 39.8828 46.2128C43.2978 46.2684 46.1411 41.7273 46.2334 36.0701Z" fill="#CDE4FF"/>
<path d="M13.0602 35.6445C12.9167 40.753 10.9151 44.8436 8.59329 44.7774C6.26871 44.7112 4.50181 40.5158 4.64537 35.4073C4.78893 30.2989 6.7905 26.2083 9.11231 26.2745C11.4369 26.3407 13.2038 30.5361 13.0602 35.6445Z" fill="#CDE4FF"/>
<path d="M16.6549 35.1705C16.7987 30.0601 15.031 25.8643 12.7067 25.7991C10.3825 25.7338 8.38168 29.8237 8.23789 34.9341C8.0941 40.0446 9.86175 44.2403 12.186 44.3056C14.5103 44.3709 16.5111 40.281 16.6549 35.1705Z" fill="#CDE4FF"/>
<!--<path d="M57.1864 110.435C75.7394 110.435 90.7796 108.368 90.7796 105.818C90.7796 103.267 75.7394 101.2 57.1864 101.2C38.6334 101.2 23.5933 103.267 23.5933 105.818C23.5933 108.368 38.6334 110.435 57.1864 110.435Z" fill="#CDE4FF"/>-->
<path opacity="0.5" d="M57.2262 6.69918C57.4471 8.56381 50.7549 9.87954 41.8404 10.9332C32.9258 11.9869 24.4474 13.4185 24.2266 11.5538C24.0057 9.68921 32.1252 5.23451 41.0397 4.18082C49.9543 3.12714 57.0053 4.83455 57.2262 6.69918Z" fill="#CDE4FF"/>
<path d="M128.435 65.1725C128.416 67.6578 125.573 69.6493 122.088 69.6217C118.604 69.5941 110.385 67.5116 110.405 65.0263C110.424 62.5411 118.676 60.5937 122.16 60.6213C125.647 60.6488 128.455 62.6873 128.435 65.1725Z" fill="#CDE4FF"/>
<path d="M132.215 36.9843C132.259 38.2255 130.882 39.282 129.14 39.3426C127.398 39.4033 123.248 38.54 123.204 37.296C123.16 36.0547 127.24 34.9045 128.982 34.8438C130.724 34.7831 132.171 35.7403 132.215 36.9843Z" fill="#CDE4FF"/>
</g>
</g>
<defs>
<linearGradient id="paint0_linear" x1="69.3896" y1="92.9758" x2="69.3896" y2="0.102752" gradientUnits="userSpaceOnUse">
<stop offset="0.0315" stop-color="#28AAE1"/>
<stop offset="1" stop-color="#2A3B8E"/>
</linearGradient>
<linearGradient id="paint1_linear" x1="43.4435" y1="92.8469" x2="43.4435" y2="0.403787" gradientUnits="userSpaceOnUse">
<stop stop-color="#EA2B7B"/>
<stop offset="1" stop-color="#2A3B8E"/>
</linearGradient>
<linearGradient id="paint2_linear" x1="43.4435" y1="92.8469" x2="43.4435" y2="0.403787" gradientUnits="userSpaceOnUse">
<stop stop-color="#EA2B7B"/>
<stop offset="1" stop-color="#2A3B8E"/>
</linearGradient>
<linearGradient id="paint3_linear" x1="36.2771" y1="46.2292" x2="36.2771" y2="25.7442" gradientUnits="userSpaceOnUse">
<stop stop-color="#EA2B7B"/>
<stop offset="1" stop-color="#8F288C"/>
</linearGradient>
<linearGradient id="paint4_linear" x1="8.75862" y1="44.7826" x2="8.95729" y2="26.2743" gradientUnits="userSpaceOnUse">
<stop stop-color="#EA2B7B"/>
<stop offset="1" stop-color="#8F288C"/>
</linearGradient>
<linearGradient id="paint5_linear" x1="40.9799" y1="11.1123" x2="40.1768" y2="4.3184" gradientUnits="userSpaceOnUse">
<stop stop-color="white" stop-opacity="0"/>
<stop offset="1" stop-color="white"/>
</linearGradient>
<linearGradient id="paint6_linear" x1="43.4435" y1="92.8454" x2="43.4435" y2="0.402322" gradientUnits="userSpaceOnUse">
<stop stop-color="#EA2B7B"/>
<stop offset="1" stop-color="#2A3B8E"/>
</linearGradient>
<linearGradient id="paint7_linear" x1="43.4435" y1="92.8454" x2="43.4435" y2="0.402322" gradientUnits="userSpaceOnUse">
<stop stop-color="#EA2B7B"/>
<stop offset="1" stop-color="#2A3B8E"/>
</linearGradient>
</defs>
</svg>
