<?xml version="1.0" standalone="no"?>
<!DOCTYPE svg PUBLIC "-//W3C//DTD SVG 1.1//EN" "http://www.w3.org/Graphics/SVG/1.1/DTD/svg11.dtd">
<svg t="1634828380989" class="icon" viewBox="0 0 1536 1024" version="1.1" xmlns="http://www.w3.org/2000/svg" p-id="32600" xmlns:xlink="http://www.w3.org/1999/xlink" width="54" height="36">
<defs><style type="text/css"></style></defs>
<path d="M367.274667 113.322667l-118.784 772.778666H0l91.477333-720.896-39.594666-51.882666h315.392z m210.261333 772.778666a91.306667 91.306667 0 0 1-35.498667-6.826666 80.64 80.64 0 0 1-27.989333-19.114667 63.573333 63.573333 0 0 1-15.701333-29.354667 70.314667 70.314667 0 0 1 1.365333-36.181333l91.477333-681.301333h826.026667l-13.653333 131.072H827.392l-65.536 510.634666h510.634667l65.536-51.882666-25.941334 182.954666H577.536z m2052.096-644.437333h-439.637333l-17.749334" fill="#1890ff" p-id="32601">
</path>
</svg>